<svg width="1065" height="262" viewBox="0 0 1065 262" fill="none" xmlns="http://www.w3.org/2000/svg">
<path d="M1051.89 261.97C1051.89 261.97 934.304 221.003 848.378 185.26C724.786 126.005 578.386 9.03238 567.84 5.52225C563.031 3.91945 558.223 2.76543 552.693 2.01211C551.139 1.56333 549.76 1.29086 548.606 1.24277C544.567 1.08249 540.865 0.970291 537.419 0.922207C536.89 0.906179 536.329 0.906184 535.784 0.890156C535.287 0.890156 534.806 0.874125 534.309 0.874125C533.572 0.874125 532.819 0.858093 532.049 0.858093C531.28 0.858093 530.527 0.858097 529.789 0.874125C529.308 0.874125 528.812 0.890156 528.315 0.890156C527.77 0.890156 527.209 0.906179 526.68 0.922207C523.218 0.986319 519.531 1.08249 515.492 1.24277C514.338 1.29086 512.96 1.56333 511.405 2.01211C505.876 2.76543 501.067 3.91945 496.259 5.52225C485.712 9.03238 339.313 126.005 215.721 185.26C129.795 221.003 12.1973 261.97 12.1973 261.97L0 353.859H1064.08L1051.89 261.97Z" fill="#243563"/>
<path opacity="0.1" d="M567.84 5.5222C555.017 1.24273 542.195 0.184883 515.476 1.24273C498.599 1.91591 436.571 47.3392 378.1 89.6211C380.344 90.8072 382.156 92.5542 383.117 94.9264C384.079 97.3145 383.983 100.007 383.646 102.572C378.613 141.183 327.276 157.724 315.703 194.893C314.998 197.137 314.485 199.669 315.479 201.801C317.483 206.048 323.589 205.728 328.093 204.446C343.272 200.118 357.424 192.264 369.125 181.702C374.975 176.413 380.28 170.434 386.948 166.235C396.244 160.401 407.432 158.525 417.545 154.278C430.56 148.812 442.565 139.228 456.686 139.212C461.109 139.212 465.758 140.302 468.995 143.315C470.838 145.014 472.185 147.29 474.349 148.556C479.622 151.633 487.251 147.546 492.076 151.265C493.646 152.483 494.64 154.374 496.371 155.368C500.186 157.58 504.706 154.342 508.44 151.97C520.669 144.212 536.922 145.431 550.113 151.393C563.304 157.355 574.139 167.405 584.829 177.182C599.896 190.982 615.299 204.67 633.058 214.768C650.817 224.865 671.284 231.228 691.608 229.177C694.301 228.904 697.17 228.391 699.125 226.516C704.847 221.003 697.57 212.027 691.111 207.395C677.551 197.65 664.937 186.558 653.542 174.345C646.874 167.197 640.366 159.167 638.78 149.518C637.177 139.869 642.37 128.473 651.939 126.485C662.068 124.386 671.108 132.993 681.19 135.381C685.004 136.279 688.963 136.263 692.874 136.375C722.318 137.176 751.521 145.19 777.262 159.487C781.397 161.779 785.564 164.296 790.244 165.001C795.133 165.754 800.053 164.44 804.685 162.564C692.65 100.392 577.168 8.63163 567.84 5.5222Z" fill="white"/>
<path opacity="0.9" d="M567.84 5.5222C555.017 1.24273 542.195 0.184883 515.476 1.24273C511.16 1.41403 502.28 1.89186 492.861 7.125C467.027 21.4779 426.681 54.4736 385.489 84.2838C391.147 85.1332 397.318 87.6496 399.466 89.3646C409.547 97.4267 403.072 110.65 399.049 120.988C393.68 134.788 393.343 144.036 410.91 141.295C430.255 138.282 446.524 123.777 465.789 119.85C488.1 115.298 499.512 145.815 523.362 130.284C529.164 126.518 533.925 120.475 540.752 119.401C544.792 118.776 548.847 120.026 552.773 121.18C570.34 126.325 588.484 129.483 606.756 130.589C610.202 130.797 613.84 130.893 616.869 129.226C626.518 123.905 619.514 110.185 631.375 106.274C641.136 103.053 654.183 110.81 663.799 112.237C684.491 115.298 705.729 118.76 726.517 115.346C644.213 62.1331 574.972 7.89434 567.84 5.5222Z" fill="white"/>
<path opacity="0.2" d="M406.55 84.9249C404.947 79.8601 409.563 75.1158 413.859 71.9903C433.878 57.4049 457.183 47.3553 475.438 30.6061C479.221 27.144 483.741 23.0889 488.742 24.2429C468.755 47.6438 444.216 67.1499 416.904 81.3507C413.634 83.0497 410.22 84.7005 406.55 84.9249Z" fill="#3A4973"/>
<path opacity="0.2" d="M492.733 41.8257C484.222 43.8612 468.707 61.5882 464.251 65.499C461.061 68.2879 457.872 71.0928 455.211 74.3785C454.65 75.0838 454.073 76.0615 454.554 76.8308C455.083 77.6963 456.381 77.4719 457.343 77.1514C461.718 75.6608 466.094 74.1862 470.47 72.6956C471.864 75.0357 470.277 77.9528 468.739 80.1967C463.754 87.4413 458.769 94.67 453.769 101.915C452.55 103.678 451.316 106.002 452.438 107.813C453.736 109.913 456.926 109.384 459.17 108.358C469.652 103.549 476.881 93.8365 483.661 84.4922C488.501 77.8245 508.6 49.5672 496.131 42.1142C495.217 41.5692 494.063 41.5212 492.733 41.8257Z" fill="#3A4973"/>
<path opacity="0.2" d="M526.84 24.7718C523.522 24.3711 521.871 28.6346 521.439 31.9363C519.868 43.9413 519.163 56.0264 518.858 68.1115C518.698 74.1541 518.666 80.1966 518.666 86.2392C518.666 89.6692 517.736 98.0839 523.506 97.5069C527.834 97.0741 529.629 87.249 530.126 83.8991C531.985 71.4293 533.123 58.8473 533.54 46.2333C533.748 39.9824 533.7 33.4109 530.639 27.9614C529.789 26.4708 528.539 24.9642 526.84 24.7718Z" fill="#3A4973"/>
<path opacity="0.2" d="M600.489 63.784C593.725 59.5526 589.061 52.6446 582.714 47.8041C579.252 45.1595 575.341 43.188 571.446 41.2166C569.603 40.287 567.76 39.3574 565.916 38.4117C564.185 37.5302 562.038 36.6647 560.403 37.7065C558.431 38.9567 558.752 41.8898 559.329 44.1497C563.16 59.0558 568.785 74.7151 581.367 83.5786C582.041 78.7221 581.191 73.6733 578.963 69.3137C593.645 74.2984 608.551 78.6099 623.617 82.2162C626.005 82.7932 629.371 82.8253 630.012 80.4371C630.445 78.8503 629.211 77.3277 627.977 76.2698C620.267 69.7304 609.064 69.1534 600.489 63.784Z" fill="#3A4973"/>
<path opacity="0.2" d="M676.381 89.8295C674.827 87.3612 672.23 85.7584 669.666 84.3639C663.976 81.2705 657.773 78.658 651.298 78.658C650.256 78.658 649.134 78.7541 648.316 79.4113C647.499 80.0684 647.226 81.4629 648.012 82.136C654.631 89.1563 663.399 94.125 672.823 96.2086C673.56 96.3689 674.33 96.5132 675.067 96.3368C677.615 95.7278 677.776 92.0093 676.381 89.8295Z" fill="#3A4973"/>
<path opacity="0.2" d="M582.281 32.1126C587.458 35.1259 591.577 40.1587 597.379 41.6172C598.726 41.9538 600.409 41.9698 601.226 40.8479C602.38 39.2611 600.841 37.1294 599.287 35.9273C593.549 31.4875 586.304 29.1154 581.047 24.0826C579.444 22.5439 578.05 20.7808 576.335 19.3543C574.62 17.9278 572.488 16.8379 570.26 16.9822C568.032 17.1425 565.852 18.8735 565.756 21.1014C565.676 23.3934 567.663 25.2045 569.651 26.3586C573.674 28.6826 578.29 29.7886 582.281 32.1126Z" fill="#3A4973"/>
<path opacity="0.2" d="M503.199 41.6173C508.055 39.4214 511.934 35.19 513.713 30.1733C514.114 29.0513 514.402 27.8332 514.114 26.6952C513.825 25.5412 512.752 24.5154 511.581 24.6436C510.7 24.7238 509.979 25.3969 509.37 26.0541C505.667 30.013 502.782 34.7413 500.955 39.8542C500.763 40.3991 500.586 41.0403 500.923 41.5211C501.388 42.1782 502.43 41.9538 503.199 41.6173Z" fill="#3A4973"/>
</svg>
